<svg width="24" height="24" viewBox="0 0 24 24" fill="none" xmlns="http://www.w3.org/2000/svg">
    <rect width="24" height="24" rx="3" fill="#D9D9D9"/>
    <path d="M3.75852 17V8.27273H7.2017C7.8608 8.27273 8.4233 8.39062 8.8892 8.62642C9.35795 8.85937 9.71449 9.19034 9.95881 9.61932C10.206 10.0455 10.3295 10.5469 10.3295 11.1236C10.3295 11.7031 10.2045 12.2017 9.95455 12.6193C9.70455 13.0341 9.34233 13.3523 8.8679 13.5739C8.39631 13.7955 7.82528 13.9062 7.15483 13.9062H4.84943V12.4233H6.85653C7.20881 12.4233 7.50142 12.375 7.73438 12.2784C7.96733 12.1818 8.14063 12.0369 8.25426 11.8438C8.37074 11.6506 8.42898 11.4105 8.42898 11.1236C8.42898 10.8338 8.37074 10.5895 8.25426 10.3906C8.14063 10.1918 7.96591 10.0412 7.73011 9.93892C7.49716 9.83381 7.20313 9.78125 6.84801 9.78125H5.60369V17H3.75852ZM8.47159 13.0284L10.6406 17H8.60369L6.48153 13.0284H8.47159ZM12.598 17L10.1009 8.27273H12.1165L13.5611 14.3366H13.6335L15.2273 8.27273H16.9531L18.5426 14.3494H18.6193L20.0639 8.27273H22.0795L19.5824 17H17.7841L16.1222 11.294H16.054L14.3963 17H12.598Z" fill="#1B1B1B"/>
</svg>
